<svg viewBox="0 0 150 68" fill="none" xmlns="http://www.w3.org/2000/svg">
<path d="M0.44043 53.176C0.44043 52.888 0.44043 52.192 0.44043 52C0.44043 51.616 0.616 51 1 51H12.3435C12.7421 51 13.1048 51.2358 13.244 51.6093C13.3619 51.9255 13.4819 52.2889 13.5 52.5C13.788 55.86 16.5684 57.5 19.9284 57.5C23.5764 57.5 26 55.384 26 51.832C26 38.872 0.44043 51.064 0.44043 31.096C0.44043 20.152 10.6164 17.176 19.9284 17.176C29.3364 17.176 39.5124 20.152 39.5124 31.096C39.5124 31.384 39.5124 31.576 39.5124 31.768C39.5124 33 38.288 33.5 38 33.5L27.6605 33.732C27.3278 33.732 26.7008 32.7206 26.5389 32.2004C26.4987 32.0711 26.4724 31.9343 26.4171 31.8107C24.9214 28.4638 22.7986 27.5 19.5 27.5C15.948 27.5 14.5 28.948 14.5 32.5C14.5 45.46 39.5124 33.208 39.5124 53.176C39.5124 64.12 29.3364 67 19.9284 67C10.6164 67 0.44043 64.024 0.44043 53.176Z" fill="black"/>
<path d="M42 0.768002C42 0.384001 42.288 0 42.672 0H54.288C54.672 0 54.96 0.384001 54.96 0.768002V23.136C54.96 23.232 55.056 23.328 55.152 23.424C55.344 23.424 55.44 23.328 55.44 23.232C55.92 21.312 57.0081 19.256 59.1201 18.2C60.7521 17.528 64.0081 17.2 66.1201 17.2C79.0801 17.2 81.6201 32.372 81.6201 43.7L81.072 66.528C81.072 66.912 80.784 67.2 80.4 67.2H68.688C68.304 67.2 68.016 66.912 68.016 66.528V42.336C68.016 34.944 66.8041 28.7 61.6201 28.7C56.4361 28.7 55.6201 35.3079 55.6201 42.7L54.96 66.528C55.6201 67.2 54.672 67.2 54.288 67.2H42.672C42.288 67.2 42 66.912 42 66.528V0.768002Z" fill="black"/>
<path d="M84 17.768C84 17.384 84.288 17 84.576 17H96.288C96.672 17 96.96 17.384 96.96 17.768V22.76C96.96 22.856 97.056 22.952 97.152 23.048C97.248 23.048 97.344 22.952 97.44 22.856C97.92 20.936 98.88 19.208 101.088 18.152C102.72 17.48 104.544 17.096 106.752 17.096C113.28 17.096 117.408 20.552 119.808 25.448C122.304 20.552 126.336 17.096 132.768 17.096C145.728 17.096 149.088 30.632 149.088 41.96V66.152C149.088 66.536 148.8 66.824 148.416 66.824H136.704C136.416 66.824 136.032 66.536 136.032 66.152L135.5 42C135.5 34.608 134.684 28 129.5 28C124.412 28 123.5 34.608 123.5 42L123.072 66.152C123.072 66.536 122.688 66.824 122.4 66.824H110.688C110.304 66.824 110.016 66.536 110.016 66.152V41.96C110.016 34.568 108.684 28.5 103.5 28.5C98.316 28.5 97.44 35.108 97.44 42.5L96.96 66.152C96.96 66.536 96.672 66.824 96.288 66.824H84.672C84.288 66.824 84 66.536 84 66.152V17.768Z" fill="black"/>
</svg>
