<svg viewBox="0 0 586 74" fill="none" xmlns="http://www.w3.org/2000/svg">
  <path d="M51 24.3419C46.9567 19.772 38.8244 12.2724 32.2102 9.32391C28.1101 7.49614 21.7122 6.62472 14.8663 8.35323C11.7673 9.13569 9.0736 10.946 7.19843 13.6684C1.55041 21.8684 8.02041 28.6632 12.7599 32.8807C18.1115 37.643 29.09 38.9405 36.9858 40.6119C40.3319 41.3202 43.703 41.8987 45.8963 43.5291C48.5692 45.5161 48.9631 47.2446 48.9631 50.6156C48.9631 55.7824 44.1477 62.0574 38.037 65.826C34.8774 67.7746 31.1911 68.4188 28.0315 68.4188C20.4924 68.4188 14.4121 64.0059 9.81955 59.4173C8.79729 58.159 7.79028 56.9195 5.22699 54.3904" stroke="currentColor" stroke-width="10" stroke-linecap="round"/>
  <path d="M62.8678 11C65.2255 12.8853 68.0662 20.4839 73.4989 31.6674C77.9942 43.3222 83.1224 55.2898 84.1655 58.1122C85.6405 62.1034 85.6405 62.1034 86.6053 63.5776" stroke="currentColor" stroke-width="10" stroke-linecap="round"/>
  <path d="M79.6407 41.062C87.9432 38.2431 95.9103 35.8513 103.116 33.7228C106.631 32.534 109.86 31.1246 112.676 30.1636C115.493 29.2026 117.799 28.7328 122.971 28.2487" stroke="currentColor" stroke-width="10" stroke-linecap="round"/>
  <path d="M120.175 12.588C120.636 15.891 122.495 26.284 125.521 38.1719C127.625 50.0455 129.023 58.1321 129.722 61.2073C130.149 63.0862 130.988 65.5431 131.47 68" stroke="currentColor" stroke-width="10" stroke-linecap="round"/>
  <path d="M144.868 11.1159C145.824 13.9843 146.795 17.8522 148.953 26.9716C153.502 44.6962 156.935 58.4151 157.899 62.7539C158.384 64.7024 158.862 66.1366 159.355 67.6142" stroke="currentColor" stroke-width="10" stroke-linecap="round"/>
  <path d="M144.868 11.1159C147.736 15.4329 156.428 23.1689 162.23 27.2759C165.427 29.5389 168.032 32.8315 170.922 34.5265C172.198 35.2747 173.812 33.8311 174.79 32.6215C177.217 27.0658 180.1 21.2856 182.526 15.4837C183.011 14.0277 183.489 12.5935 185.431 8.21854" stroke="currentColor" stroke-width="10" stroke-linecap="round"/>
  <path d="M186.306 7C189.189 13.7074 196.035 27.0223 198.462 33.0633C200.396 40.0749 203.278 45.8551 205.705 51.6571C206.19 53.113 207.814 56.5224 208.306 58" stroke="currentColor" stroke-width="10" stroke-linecap="round"/>
  <path d="M253.109 22.9702L253.146 23.0026C257.25 26.5937 259.801 31.4987 260.75 35.0829C261.699 38.6671 262.585 44.5565 260.989 48.1837C258.852 53.0414 257.784 53.0414 253.51 55.7402C247.772 59.3633 238.319 58.2182 234.277 55.2004C226.935 49.7181 220.609 40.6882 222.083 31.1326C222.725 26.9702 223.336 23.5129 227.867 19.9077C229.639 18.4975 231.379 18 233.627 18C247.429 18 250.087 20.3264 253.109 22.9702Z" stroke="currentColor" stroke-width="10" stroke-linecap="round"/>
  <path d="M311.89 25.9702L311.928 26.0026C316.134 29.5937 318.749 34.4987 319.722 38.0829C320.695 41.6671 321.603 47.5565 319.967 51.1837C317.777 56.0414 316.682 56.0414 312.301 58.7402C306.42 62.3633 296.73 61.2182 292.588 58.2004C285.062 52.7181 278.577 43.6882 280.088 34.1326C280.747 29.9702 281.373 26.5129 286.017 22.9077C287.833 21.4975 289.617 21 291.921 21C306.068 21 308.793 23.3264 311.89 25.9702Z" stroke="currentColor" stroke-width="10" stroke-linecap="round"/>
  <path d="M336.368 10.534C336.666 11.981 337.379 22.9274 339.262 34.543C340.09 39.6487 340.254 43.4356 340.329 48.0376C340.706 53.3762 341.156 60.267 341.156 60.267C341.156 60.267 341.35 61.5527 341.503 62" stroke="currentColor" stroke-width="10" stroke-linecap="round"/>
  <path d="M337.089 10.7243C338.008 11.7627 341.068 15.03 348.813 21.2782C352.853 24.5374 359.115 30.5968 362.64 33.9358C368.338 39.3348 372.15 43.9705 374.927 47.8577C378.871 53.381 381.043 56.6768 381.043 56.6768C381.043 56.6768 382.174 58.3247 382.739 59.4233" stroke="currentColor" stroke-width="10" stroke-linecap="round"/>
  <path d="M382.843 58.1262C382.843 55.9503 381.876 47.6141 381.216 42.1546C380.758 38.3704 379.551 30.2157 377.796 22.6418C376.632 17.6173 375.609 14.0808 375.026 11.9532C374.735 10.8609 374.512 9.81637 374.224 8.59285C374.029 7.76699 374.029 6.66019 373.458 5" stroke="currentColor" stroke-width="10" stroke-linecap="round"/>
  <path d="M412.038 52.4964C411.427 51.5767 409.583 51.1029 406.96 51.7927C405.792 52.0999 405.255 53.8621 405.399 55.2626C405.542 56.6631 406.649 58.4911 407.391 59.4641C408.517 60.9406 413.275 57.0244 413.275 54.9406C413.275 53 413.576 56.6492 413.275 57.5898C412.974 58.5305 410.813 58.9903 409.868 59.4641" stroke="currentColor" stroke-width="10" stroke-linecap="round"/>
  <path d="M482.926 17.8228C483.023 17.8228 483.121 17.8228 488.605 16.5126C494.09 15.2024 504.96 12.582 510.705 11.1351C516.45 9.68818 516.741 9.49408 517.629 9" stroke="currentColor" stroke-width="10" stroke-linecap="round"/>
  <path d="M480.868 18.9991C481.062 19.5844 482.038 21.5342 483.263 25.9868C484.327 29.852 485.767 32.9097 486.838 36.952C487.656 40.0399 489.267 45.1675 490.31 48.3995C492.231 54.3567 492.729 55.1696 493.021 55.7077C493.335 56.2848 495.361 56.543 499.509 56.8371C502.104 56.9371 505.695 56.9371 510.99 56.4033C516.285 55.8695 523.176 54.8019 530.275 53.4079" stroke="currentColor" stroke-width="10" stroke-linecap="round"/>
  <path d="M492.279 35.9388C493.429 35.8728 494.579 35.8068 500.042 35.6408C505.504 35.4748 515.244 35.2108 525.279 34.9388" stroke="currentColor" stroke-width="10" stroke-linecap="round"/>
  <path d="M544.868 10.235C544.868 11.2055 545.45 14.1317 547.594 21.0106C548.998 25.5153 551.679 31.8684 554.143 37.4003C556.608 42.9322 558.937 47.3965 560.234 50.1331C562.482 54.8757 562.707 56.4016 563.294 57.2398C563.804 57.9689 565.251 55.437 567.639 50.8124C569.49 47.2282 572.065 40.85 573.902 36.096C575.739 31.342 576.612 28.3335 577.45 24.5514C579.065 16.3051 579.962 11.4143 580.109 10.3424C580.159 9.56154 580.159 8.29989 580.159 7" stroke="currentColor" stroke-width="10" stroke-linecap="round"/>
  <path d="M430.163 13.6886C430.163 13.841 430.163 13.9933 430.925 18.6418C431.686 23.2904 433.21 32.4305 434.147 37.6722C435.72 46.475 436.773 51.3662 437.47 54.3021C437.549 54.9207 437.549 55.53 437.625 56.0724C437.701 56.6149 437.854 57.0719 438.01 57.5427" stroke="currentColor" stroke-width="10" stroke-linecap="round"/>
  <path d="M429.368 11.3805C433.656 11.0759 443.368 9.5 449.868 11.3805C452.24 12.0668 455.25 13.9841 457.406 15.9898C459.099 17.5652 460.211 19.1512 461.368 21C462.446 22.7241 463.283 25.5 464.166 27.5C465.368 30.2237 465.868 32.5 465.368 37C464.746 42.5973 463.557 43.0662 462.098 45.4551C460.899 47.4184 459.097 48.7627 457.406 50.2283C455.622 51.7731 453.41 52.9173 451.328 54.2306C449.307 55.5054 447.252 56.3056 445.403 57.1549C443.555 58.1567 442.17 58.6183 441.096 58.8491C440.48 58.9276 440.114 59.3107 438.868 58.8491" stroke="currentColor" stroke-width="10" stroke-linecap="round"/>
</svg>
